<svg xmlns="http://www.w3.org/2000/svg" viewBox="0 0 332.88 106.25"><defs><style>.cls-1{isolation:isolate;}.cls-2{font-size:70px;fill:#091013;font-family:Nunito-SemiBold, Nunito;font-weight:600;}.cls-3{letter-spacing:0em;}.cls-4{letter-spacing:-0.08em;}.cls-5{letter-spacing:0em;}.cls-6{opacity:0.8;}.cls-7{fill:#24b5d3;}.cls-8{fill:#dfe0e1;}.cls-9{fill:#a3aebc;opacity:0.35;mix-blend-mode:multiply;}.cls-10{fill:none;stroke:#24b5d3;stroke-miterlimit:10;stroke-width:3px;}.cls-11{fill:#080f12;}</style></defs><g class="cls-1"><g id="Layer_2" data-name="Layer 2"><g id="Layer_1-2" data-name="Layer 1"><text class="cls-2" transform="translate(71.3 86.93)"><tspan class="cls-3">ra</tspan><tspan x="63" y="0">w</tspan><tspan class="cls-4" x="122.22" y="0">T</tspan><tspan x="159.6" y="0">e</tspan><tspan class="cls-5" x="197.19" y="0">c</tspan><tspan x="229.95" y="0">t</tspan></text><g class="cls-6"><path class="cls-7" d="M60.55,74.66,23.7,2.93A5.13,5.13,0,0,0,16.56.67a5.71,5.71,0,0,0-2.11,7.54L51.31,79.94Z"/><path class="cls-8" d="M49.31,62.28l4.26,8.29a1.91,1.91,0,0,1-.7,2.5,1.71,1.71,0,0,1-2.37-.75L46.24,64Z"/><path class="cls-8" d="M52.87,73.07a2,2,0,0,1-.46.17,1.92,1.92,0,0,0,.31-2.19l-4.26-8.29.85-.48,4.26,8.29A1.91,1.91,0,0,1,52.87,73.07Z"/><path class="cls-8" d="M16.56.67a5.24,5.24,0,0,0-1.17.91,5.19,5.19,0,0,1,5.77,2.8L58,76.11l2.53-1.45L23.7,2.93A5.13,5.13,0,0,0,16.56.67Z"/><polygon class="cls-9" points="58.02 76.11 60.82 87.15 62.19 86.36 60.55 74.66 58.02 76.11"/></g><path class="cls-10" d="M1.9,53.86a46.61,46.61,0,0,1-.4-6.06A45.5,45.5,0,1,1,47,93.29"/><path class="cls-7" d="M62.2,87.82a.68.68,0,0,1-.25.91h0a.62.62,0,0,1-.86-.28l-.89-1.7a.68.68,0,0,1,.25-.91h0a.62.62,0,0,1,.86.28Z"/><polygon class="cls-8" points="62.39 86.41 60.09 87.71 52.22 80.39 60.8 75.54 62.39 86.41"/><path class="cls-11" d="M232.47,101.51a6.48,6.48,0,0,1-1.18-.1,5.36,5.36,0,0,1-1.08-.29,4.13,4.13,0,0,1-.91-.48.67.67,0,0,1-.24-.29.54.54,0,0,1,0-.33.57.57,0,0,1,.14-.28.54.54,0,0,1,.27-.14.48.48,0,0,1,.34.1,4.2,4.2,0,0,0,1.25.59,5.48,5.48,0,0,0,1.45.18,2.81,2.81,0,0,0,1.68-.41,1.33,1.33,0,0,0,.54-1.1,1.06,1.06,0,0,0-.39-.87,2.92,2.92,0,0,0-1.31-.5l-1.38-.29a3.56,3.56,0,0,1-1.82-.86,2.13,2.13,0,0,1-.61-1.6,2.41,2.41,0,0,1,.25-1.11,2.51,2.51,0,0,1,.7-.86,3.12,3.12,0,0,1,1.07-.56,4.53,4.53,0,0,1,1.37-.2,5.32,5.32,0,0,1,1.52.22,4.41,4.41,0,0,1,1.28.65.63.63,0,0,1,.21.28.7.7,0,0,1,0,.32.43.43,0,0,1-.15.26.42.42,0,0,1-.27.12.55.55,0,0,1-.36-.12,3.48,3.48,0,0,0-1.06-.52,4.19,4.19,0,0,0-1.2-.17,2.91,2.91,0,0,0-1.15.21,1.71,1.71,0,0,0-.75.58,1.42,1.42,0,0,0-.27.86,1.24,1.24,0,0,0,.36.94,2.68,2.68,0,0,0,1.23.52l1.36.27a4.08,4.08,0,0,1,1.93.84,1.94,1.94,0,0,1,.63,1.52,2.35,2.35,0,0,1-.92,1.9,3.21,3.21,0,0,1-1.08.53A4.85,4.85,0,0,1,232.47,101.51Z"/><path class="cls-11" d="M240.09,101.51a3.31,3.31,0,0,1-1.67-.41,2.77,2.77,0,0,1-1.07-1.15,3.79,3.79,0,0,1-.38-1.77,4.07,4.07,0,0,1,.21-1.35,2.91,2.91,0,0,1,.62-1,2.73,2.73,0,0,1,1-.64,3.6,3.6,0,0,1,1.31-.22,3.38,3.38,0,0,1,1,.14,2.68,2.68,0,0,1,.94.47.51.51,0,0,1,.18.24.66.66,0,0,1,0,.28.7.7,0,0,1-.13.24.44.44,0,0,1-.25.11.51.51,0,0,1-.32-.09,2.08,2.08,0,0,0-.66-.34,2.33,2.33,0,0,0-1.5,0,1.69,1.69,0,0,0-.63.45,1.87,1.87,0,0,0-.38.71,3.3,3.3,0,0,0-.13,1,2.63,2.63,0,0,0,.52,1.73,1.78,1.78,0,0,0,1.47.63,2.24,2.24,0,0,0,.65-.1,2,2,0,0,0,.66-.33.48.48,0,0,1,.31-.08.35.35,0,0,1,.24.12.41.41,0,0,1,.13.23.68.68,0,0,1,0,.28.43.43,0,0,1-.19.23,2.89,2.89,0,0,1-.91.46A3.64,3.64,0,0,1,240.09,101.51Z"/><path class="cls-11" d="M244,101.49a.61.61,0,0,1-.45-.16.6.6,0,0,1-.16-.46v-5.3A.54.54,0,0,1,244,95a.57.57,0,0,1,.42.15.61.61,0,0,1,.15.45v1h-.13a2,2,0,0,1,.78-1.18,2.76,2.76,0,0,1,1.44-.46.48.48,0,0,1,.34.1.49.49,0,0,1,.14.37.52.52,0,0,1-.12.4.53.53,0,0,1-.4.17l-.23,0a2.06,2.06,0,0,0-1.32.56,1.73,1.73,0,0,0-.46,1.28v3a.64.64,0,0,1-.15.46A.61.61,0,0,1,244,101.49Z"/><path class="cls-11" d="M248.72,93.59a.79.79,0,0,1-.55-.18.65.65,0,0,1-.2-.5.64.64,0,0,1,.2-.52.84.84,0,0,1,.55-.17.86.86,0,0,1,.57.17.7.7,0,0,1,.18.52.71.71,0,0,1-.18.5A.81.81,0,0,1,248.72,93.59Zm0,7.87a.58.58,0,0,1-.43-.17.68.68,0,0,1-.15-.47V95.64a.69.69,0,0,1,.15-.48.57.57,0,0,1,.43-.16.57.57,0,0,1,.44.16.65.65,0,0,1,.16.48v5.18a.68.68,0,0,1-.15.47A.58.58,0,0,1,248.72,101.46Z"/><path class="cls-11" d="M254.53,101.51a2.48,2.48,0,0,1-1.47-.43,2.09,2.09,0,0,1-.82-1.15l.15-.2v1.14a.64.64,0,0,1-.15.46.61.61,0,0,1-.44.16.61.61,0,0,1-.43-.16.64.64,0,0,1-.15-.46V92.74a.53.53,0,0,1,.58-.6.6.6,0,0,1,.44.15.58.58,0,0,1,.16.45v3.75h-.14a2,2,0,0,1,.82-1.12,2.48,2.48,0,0,1,1.45-.42,2.77,2.77,0,0,1,1.48.39,2.62,2.62,0,0,1,1,1.13,4.55,4.55,0,0,1,0,3.5,2.54,2.54,0,0,1-2.45,1.54Zm-.27-.93a1.74,1.74,0,0,0,1.64-1.07,3.27,3.27,0,0,0,.23-1.29,2.62,2.62,0,0,0-.51-1.74,1.68,1.68,0,0,0-1.36-.6,1.85,1.85,0,0,0-1,.27,1.77,1.77,0,0,0-.65.79,3.2,3.2,0,0,0-.22,1.28,2.68,2.68,0,0,0,.5,1.75A1.72,1.72,0,0,0,254.26,100.58Z"/><path class="cls-11" d="M262.16,101.51a2.48,2.48,0,0,1-1.47-.43,2.09,2.09,0,0,1-.82-1.15l.15-.2v1.14a.64.64,0,0,1-.15.46.61.61,0,0,1-.44.16.61.61,0,0,1-.43-.16.64.64,0,0,1-.15-.46V92.74a.53.53,0,0,1,.58-.6.6.6,0,0,1,.44.15.58.58,0,0,1,.16.45v3.75h-.14a2,2,0,0,1,.82-1.12,2.48,2.48,0,0,1,1.45-.42,2.75,2.75,0,0,1,1.48.39,2.62,2.62,0,0,1,1,1.13,4.55,4.55,0,0,1,0,3.5,2.54,2.54,0,0,1-2.45,1.54Zm-.27-.93a1.74,1.74,0,0,0,1.64-1.07,3.27,3.27,0,0,0,.23-1.29,2.62,2.62,0,0,0-.51-1.74,1.68,1.68,0,0,0-1.36-.6,1.85,1.85,0,0,0-1,.27,1.77,1.77,0,0,0-.65.79,3.2,3.2,0,0,0-.22,1.28,2.68,2.68,0,0,0,.5,1.75A1.72,1.72,0,0,0,261.89,100.58Z"/><path class="cls-11" d="M268.47,101.51a1.84,1.84,0,0,1-1.48-.58,2.44,2.44,0,0,1-.51-1.67V92.74a.53.53,0,0,1,.58-.6.64.64,0,0,1,.45.15.61.61,0,0,1,.15.45v6.43a1.52,1.52,0,0,0,.28,1,1,1,0,0,0,.8.33H269l.18,0a.24.24,0,0,1,.21.08.74.74,0,0,1,.06.37.5.5,0,0,1-.47.56h-.46Z"/><path class="cls-11" d="M273.25,101.51a3.72,3.72,0,0,1-1.76-.39,2.84,2.84,0,0,1-1.14-1.14,3.94,3.94,0,0,1,0-3.46,2.9,2.9,0,0,1,1.09-1.16,3.27,3.27,0,0,1,2.74-.2,2.39,2.39,0,0,1,.88.62,2.6,2.6,0,0,1,.55,1,4.1,4.1,0,0,1,.19,1.31.4.4,0,0,1-.12.31.52.52,0,0,1-.36.12h-4.45v-.76H275l-.22.18a3,3,0,0,0-.2-1.15,1.62,1.62,0,0,0-.59-.72,1.74,1.74,0,0,0-.95-.25,1.85,1.85,0,0,0-1.07.3,1.91,1.91,0,0,0-.68.82,3,3,0,0,0-.23,1.21v.08a2.52,2.52,0,0,0,.56,1.77,2.09,2.09,0,0,0,1.61.6,3.61,3.61,0,0,0,.85-.11,2.43,2.43,0,0,0,.84-.38.78.78,0,0,1,.36-.11.41.41,0,0,1,.27.11.48.48,0,0,1,.13.23.6.6,0,0,1,0,.29.66.66,0,0,1-.25.28,3.41,3.41,0,0,1-1,.46A4.23,4.23,0,0,1,273.25,101.51Z"/><path class="cls-11" d="M283.29,101.51a2.73,2.73,0,0,1-1.28-.27,1.73,1.73,0,0,1-.77-.79,2.92,2.92,0,0,1-.25-1.28V96h-.84a.52.52,0,0,1-.36-.12.42.42,0,0,1-.13-.33.42.42,0,0,1,.13-.34.52.52,0,0,1,.36-.12H281V93.65a.61.61,0,0,1,.15-.45.62.62,0,0,1,.44-.15.6.6,0,0,1,.44.15.61.61,0,0,1,.15.45v1.41h1.57a.54.54,0,0,1,.38.12.42.42,0,0,1,.13.34.42.42,0,0,1-.13.33.54.54,0,0,1-.38.12h-1.57v3.1a1.69,1.69,0,0,0,.3,1.08,1.22,1.22,0,0,0,1,.36,1.24,1.24,0,0,0,.41-.05,1.13,1.13,0,0,1,.3,0,.22.22,0,0,1,.2.08.48.48,0,0,1,.09.34.88.88,0,0,1-.06.33.36.36,0,0,1-.23.2,3.3,3.3,0,0,1-.42.1A2.6,2.6,0,0,1,283.29,101.51Z"/><path class="cls-11" d="M287.94,101.51a3.14,3.14,0,0,1-1.62-.4,2.71,2.71,0,0,1-1.07-1.15,3.78,3.78,0,0,1-.38-1.74,3.92,3.92,0,0,1,.22-1.36,3,3,0,0,1,.61-1,2.83,2.83,0,0,1,1-.66,3.42,3.42,0,0,1,1.27-.22,3.15,3.15,0,0,1,1.63.4,2.72,2.72,0,0,1,1.06,1.14,3.77,3.77,0,0,1,.38,1.73,3.94,3.94,0,0,1-.22,1.37,2.83,2.83,0,0,1-.61,1,2.72,2.72,0,0,1-1,.65A3.23,3.23,0,0,1,287.94,101.51Zm0-.93a1.85,1.85,0,0,0,1-.28,1.77,1.77,0,0,0,.65-.79,3.28,3.28,0,0,0,.22-1.29,2.67,2.67,0,0,0-.5-1.74,1.71,1.71,0,0,0-1.37-.6,1.71,1.71,0,0,0-1.64,1.06,3.19,3.19,0,0,0-.23,1.28,2.63,2.63,0,0,0,.51,1.75A1.71,1.71,0,0,0,287.94,100.58Z"/><path class="cls-11" d="M299.08,101.51a6.48,6.48,0,0,1-1.18-.1,5.36,5.36,0,0,1-1.08-.29,4.13,4.13,0,0,1-.91-.48.67.67,0,0,1-.24-.29.54.54,0,0,1,0-.33.57.57,0,0,1,.14-.28.59.59,0,0,1,.27-.14.48.48,0,0,1,.34.1,4.2,4.2,0,0,0,1.25.59,5.48,5.48,0,0,0,1.45.18,2.84,2.84,0,0,0,1.69-.41,1.35,1.35,0,0,0,.53-1.1,1,1,0,0,0-.39-.87,2.87,2.87,0,0,0-1.31-.5l-1.38-.29a3.56,3.56,0,0,1-1.82-.86,2.13,2.13,0,0,1-.61-1.6,2.55,2.55,0,0,1,.25-1.11,2.51,2.51,0,0,1,.7-.86,3.21,3.21,0,0,1,1.07-.56,4.6,4.6,0,0,1,1.38-.2,5.3,5.3,0,0,1,1.51.22A4.41,4.41,0,0,1,302,93a.63.63,0,0,1,.21.28.7.7,0,0,1,0,.32.45.45,0,0,1-.42.38.55.55,0,0,1-.36-.12,3.48,3.48,0,0,0-1.06-.52,4.14,4.14,0,0,0-1.2-.17,2.91,2.91,0,0,0-1.15.21,1.77,1.77,0,0,0-.75.58,1.42,1.42,0,0,0-.27.86,1.21,1.21,0,0,0,.37.94,2.63,2.63,0,0,0,1.22.52l1.36.27a4.08,4.08,0,0,1,1.93.84,1.94,1.94,0,0,1,.63,1.52,2.37,2.37,0,0,1-.24,1.07,2.27,2.27,0,0,1-.68.83,3,3,0,0,1-1.08.53A4.85,4.85,0,0,1,299.08,101.51Z"/><path class="cls-11" d="M306.65,101.51a3.15,3.15,0,0,1-1.63-.4A2.69,2.69,0,0,1,304,100a3.78,3.78,0,0,1-.38-1.74,4.17,4.17,0,0,1,.21-1.36,3,3,0,0,1,.62-1,2.74,2.74,0,0,1,1-.66,3.42,3.42,0,0,1,1.27-.22,3.14,3.14,0,0,1,1.62.4,2.74,2.74,0,0,1,1.07,1.14,3.77,3.77,0,0,1,.38,1.73,4.19,4.19,0,0,1-.22,1.37,2.85,2.85,0,0,1-.62,1,2.68,2.68,0,0,1-1,.65A3.23,3.23,0,0,1,306.65,101.51Zm0-.93a1.8,1.8,0,0,0,1-.28,1.71,1.71,0,0,0,.65-.79,3.27,3.27,0,0,0,.23-1.29,2.62,2.62,0,0,0-.51-1.74,1.69,1.69,0,0,0-1.36-.6,1.76,1.76,0,0,0-1,.27,1.73,1.73,0,0,0-.66.79,3,3,0,0,0-.23,1.28,2.63,2.63,0,0,0,.51,1.75A1.7,1.7,0,0,0,306.65,100.58Z"/><path class="cls-11" d="M313.23,101.51a1.87,1.87,0,0,1-1.49-.58,2.49,2.49,0,0,1-.5-1.67V92.74a.53.53,0,0,1,.58-.6.6.6,0,0,1,.44.15.58.58,0,0,1,.16.45v6.43a1.52,1.52,0,0,0,.28,1,1,1,0,0,0,.8.33h.21l.18,0a.25.25,0,0,1,.21.08.74.74,0,0,1,.06.37.61.61,0,0,1-.11.38.56.56,0,0,1-.36.18h-.46Z"/><path class="cls-11" d="M317.4,101.49a.75.75,0,0,1-.43-.13,1,1,0,0,1-.31-.42l-2.21-5.15a.87.87,0,0,1-.07-.4.47.47,0,0,1,.18-.3A.63.63,0,0,1,315,95a.54.54,0,0,1,.35.11,1,1,0,0,1,.25.36l2,5h-.37l2.1-5a.87.87,0,0,1,.24-.36A.61.61,0,0,1,320,95a.45.45,0,0,1,.34.12.44.44,0,0,1,.15.3.63.63,0,0,1-.07.39l-2.23,5.16a1,1,0,0,1-.3.42A.85.85,0,0,1,317.4,101.49Z"/><path class="cls-11" d="M324.55,101.51a3.69,3.69,0,0,1-1.76-.39,2.84,2.84,0,0,1-1.14-1.14,3.51,3.51,0,0,1-.4-1.73,3.65,3.65,0,0,1,.39-1.73,3.13,3.13,0,0,1,3.84-1.36,2.47,2.47,0,0,1,.88.62,2.75,2.75,0,0,1,.55,1,4.4,4.4,0,0,1,.19,1.31.37.37,0,0,1-.13.31.48.48,0,0,1-.35.12h-4.45v-.76h4.15l-.22.18a2.85,2.85,0,0,0-.21-1.15,1.6,1.6,0,0,0-.58-.72,1.8,1.8,0,0,0-1-.25,1.83,1.83,0,0,0-1.74,1.12,3,3,0,0,0-.23,1.21v.08a2.48,2.48,0,0,0,.56,1.77,2.09,2.09,0,0,0,1.61.6,3.61,3.61,0,0,0,.85-.11,2.43,2.43,0,0,0,.84-.38.78.78,0,0,1,.36-.11.42.42,0,0,1,.39.34.43.43,0,0,1,0,.29.58.58,0,0,1-.24.28,3.41,3.41,0,0,1-1,.46A4.29,4.29,0,0,1,324.55,101.51Z"/></g></g></g></svg>