<svg xmlns="http://www.w3.org/2000/svg" viewBox="0 0 93.99 94.79"><defs><style>.cls-1{isolation:isolate;}.cls-2{opacity:0.8;}.cls-3{fill:#23b5d3;}.cls-4{fill:#dfe0e2;}.cls-5{fill:#a2aebb;opacity:0.35;mix-blend-mode:multiply;}.cls-6{fill:none;stroke:#23b5d3;stroke-miterlimit:10;stroke-width:3px;}</style></defs><g class="cls-1"><g id="Layer_2" data-name="Layer 2"><g id="OBJECTS"><g class="cls-2"><path class="cls-3" d="M60.55,74.66,23.7,2.93A5.13,5.13,0,0,0,16.56.67a5.71,5.71,0,0,0-2.11,7.54L51.31,79.94Z"/><path class="cls-4" d="M49.31,62.28l4.26,8.29a1.91,1.91,0,0,1-.7,2.5,1.71,1.71,0,0,1-2.37-.75L46.24,64Z"/><path class="cls-4" d="M52.87,73.07a2,2,0,0,1-.46.17,1.92,1.92,0,0,0,.31-2.19l-4.26-8.29.85-.48,4.26,8.29A1.91,1.91,0,0,1,52.87,73.07Z"/><path class="cls-4" d="M16.56.67a5.24,5.24,0,0,0-1.17.91,5.19,5.19,0,0,1,5.77,2.8L58,76.11l2.53-1.45L23.7,2.93A5.13,5.13,0,0,0,16.56.67Z"/><polygon class="cls-5" points="58.02 76.11 60.82 87.15 62.19 86.36 60.55 74.66 58.02 76.11"/></g><path class="cls-6" d="M1.9,53.86a46.61,46.61,0,0,1-.4-6.06A45.5,45.5,0,1,1,47,93.29"/><path class="cls-3" d="M62.2,87.82a.68.68,0,0,1-.25.91h0a.62.62,0,0,1-.86-.28l-.89-1.7a.68.68,0,0,1,.25-.91h0a.62.62,0,0,1,.86.28Z"/><polygon class="cls-4" points="62.39 86.41 60.09 87.71 52.22 80.39 60.8 75.54 62.39 86.41"/></g></g></g></svg>