<svg xmlns="http://www.w3.org/2000/svg" viewBox="0 0 203.12 143.75"><defs><style>.cls-1{isolation:isolate;}.cls-2{font-size:37px;fill:#071013;font-family:Nunito-SemiBold, Nunito;font-weight:600;}.cls-3{letter-spacing:0em;}.cls-4{letter-spacing:-0.08em;}.cls-5{letter-spacing:0em;}.cls-6{letter-spacing:0em;}.cls-7{opacity:0.8;}.cls-8{fill:#23b5d3;}.cls-9{fill:#dfe0e2;}.cls-10{fill:#a2aebb;opacity:0.35;mix-blend-mode:multiply;}.cls-11{fill:none;stroke:#23b5d3;stroke-miterlimit:10;stroke-width:3px;}</style></defs><g class="cls-1"><g id="Layer_2" data-name="Layer 2"><g id="OBJECTS"><text class="cls-2" transform="translate(20.14 133.54)">D<tspan class="cls-3" x="27.79" y="0">ra</tspan><tspan x="61.09" y="0">w</tspan><tspan class="cls-4" x="92.39" y="0">T</tspan><tspan class="cls-5" x="112.15" y="0">e</tspan><tspan class="cls-6" x="132.02" y="0">c</tspan><tspan x="149.33" y="0">t</tspan></text><g class="cls-7"><path class="cls-8" d="M108.34,74.66,71.48,2.93A5.13,5.13,0,0,0,64.34.67a5.72,5.72,0,0,0-2.1,7.54L99.09,79.94Z"/><path class="cls-9" d="M97.09,62.28l4.26,8.29a1.9,1.9,0,0,1-.7,2.5,1.7,1.7,0,0,1-2.36-.75L94,64Z"/><path class="cls-9" d="M100.65,73.07a2,2,0,0,1-.46.17,1.92,1.92,0,0,0,.31-2.19l-4.26-8.29.85-.48,4.26,8.29A1.9,1.9,0,0,1,100.65,73.07Z"/><path class="cls-9" d="M64.34.67a5.24,5.24,0,0,0-1.17.91,5.19,5.19,0,0,1,5.77,2.8L105.8,76.11l2.54-1.45L71.48,2.93A5.13,5.13,0,0,0,64.34.67Z"/><polygon class="cls-10" points="105.8 76.11 108.6 87.15 109.98 86.36 108.34 74.66 105.8 76.11"/></g><path class="cls-11" d="M49.68,53.86a46.61,46.61,0,0,1-.4-6.06,45.5,45.5,0,1,1,45.5,45.49"/><path class="cls-8" d="M110,87.82a.68.68,0,0,1-.25.91h0a.63.63,0,0,1-.86-.28l-.89-1.7a.69.69,0,0,1,.25-.91h0a.63.63,0,0,1,.87.28Z"/><polygon class="cls-9" points="110.18 86.41 107.87 87.71 100.01 80.39 108.58 75.54 110.18 86.41"/></g></g></g></svg>