<svg width="24" height="24" viewBox="0 0 24 24" fill="none" xmlns="http://www.w3.org/2000/svg">
<path d="M18.6951 23H8.15023L7.86823 22.8544L7.10951 21.576L4.89714 19.5587C4.2488 19.0817 3.75551 18.4845 3.46027 17.8192L3.43677 17.7491L1.08676 12.3769C0.957161 12.0903 0.973276 11.7742 1.13161 11.4971C1.28995 11.22 1.57777 11.0042 1.93276 10.8963L2.55384 10.7102C2.91822 10.608 3.31606 10.6138 3.67558 10.7266C4.03509 10.8393 4.3326 11.0516 4.51442 11.3251L6.24001 14.0651L7.04908 14.4589V11.8483L5.40407 4.29693C5.33769 3.99298 5.42413 3.6803 5.64442 3.42749C5.86471 3.17468 6.20085 3.00241 6.57908 2.94848L7.23037 2.85678C7.41776 2.83001 7.60989 2.83321 7.79575 2.86618C7.98161 2.89916 8.15754 2.96126 8.31347 3.04895C8.46939 3.13663 8.60226 3.24817 8.70444 3.37717C8.80662 3.50616 8.87612 3.65009 8.90895 3.8007L10.1343 8.36387L9.99667 2.24189C9.9802 1.93549 10.1148 1.63624 10.3712 1.40904C10.6276 1.18184 10.9852 1.04503 11.3664 1.02828L12.0378 1.00131C12.2273 0.994064 12.4166 1.01695 12.5951 1.06866C12.7735 1.12036 12.9374 1.19987 13.0775 1.30261C13.2175 1.40535 13.3309 1.5293 13.4112 1.66735C13.4915 1.8054 13.537 1.95482 13.5452 2.10704L14.1495 9.07046L15.7979 2.97275C15.8681 2.67105 16.0839 2.4039 16.3984 2.22959C16.7129 2.05527 17.1004 1.98795 17.4764 2.04232L18.1244 2.13671C18.3115 2.16337 18.4901 2.21944 18.6502 2.3017C18.8102 2.38397 18.9485 2.4908 19.057 2.61608C19.1656 2.74135 19.2423 2.88261 19.2827 3.03175C19.3231 3.18089 19.3265 3.33497 19.2927 3.48516L18.1647 8.92483L19.7056 5.47548C19.8256 5.18747 20.0808 4.94849 20.417 4.80946C20.7531 4.67042 21.1435 4.64232 21.505 4.73113L21.9952 4.85519C22.3602 4.94983 22.6636 5.15676 22.8392 5.4307C23.0147 5.70465 23.048 6.02329 22.9318 6.31692L20.6892 13.9869C20.6657 14.3429 20.3938 18.0539 20.1017 19.6343C19.954 20.4433 19.0342 22.7303 18.9939 22.8274L18.6951 23ZM8.35166 22.4876L18.4836 22.4957C18.8829 21.5315 19.2191 20.5512 19.4907 19.5587C19.7862 17.9568 20.0715 13.9761 20.0749 13.9357V13.8925L22.3443 6.17938C22.4122 6.01236 22.3948 5.83054 22.296 5.67381C22.1972 5.51708 22.025 5.39823 21.8173 5.34333L21.3305 5.21928C21.1234 5.16736 20.8993 5.18295 20.7064 5.26268C20.5136 5.34241 20.3675 5.47987 20.2998 5.64539L17.5872 11.708L16.9829 11.584L18.6615 3.39886C18.6803 3.31313 18.6778 3.22526 18.6542 3.1403C18.6306 3.05534 18.5864 2.97496 18.524 2.90379C18.4616 2.83262 18.3823 2.77205 18.2907 2.72557C18.199 2.67909 18.0969 2.64761 17.9901 2.63294L17.3522 2.53855C17.2457 2.52347 17.1365 2.52548 17.031 2.54448C16.9254 2.56347 16.8256 2.59907 16.7373 2.64921C16.649 2.69936 16.5739 2.76306 16.5163 2.83665C16.4588 2.91023 16.42 2.99223 16.4021 3.07793L14.2972 10.9125L13.6761 10.8747L12.9208 2.13401C12.9078 1.95945 12.8102 1.79593 12.6489 1.67847C12.4876 1.56102 12.2755 1.49897 12.058 1.50563L11.3865 1.5326C11.1704 1.54305 10.9681 1.62126 10.823 1.75039C10.678 1.87952 10.6018 2.04924 10.611 2.22301L10.7957 10.934L10.178 10.9907L8.28788 3.90588C8.2702 3.8197 8.23142 3.73719 8.1738 3.66313C8.11618 3.58906 8.04084 3.52491 7.95216 3.47438C7.86492 3.4237 7.7658 3.38777 7.66077 3.36876C7.55575 3.34975 7.44701 3.34807 7.34116 3.3638L6.68651 3.4555C6.58003 3.47018 6.4782 3.50157 6.38683 3.54788C6.29545 3.59419 6.21633 3.6545 6.15398 3.72537C6.09163 3.79625 6.04727 3.8763 6.02344 3.96095C5.9996 4.0456 5.99676 4.13319 6.01508 4.21872L7.67687 11.8159V14.9066L7.20015 15.1223L5.83715 14.4589L5.72636 14.3564L3.95378 11.5462C3.84114 11.3839 3.66111 11.2585 3.44512 11.192C3.22913 11.1255 2.99091 11.122 2.77205 11.1821L2.15434 11.3682C1.9509 11.4294 1.78604 11.553 1.69601 11.7118C1.60598 11.8706 1.59816 12.0516 1.67426 12.2151L4.04778 17.6412C4.31439 18.2411 4.76193 18.7785 5.35036 19.2054L7.65673 21.3171L8.35166 22.4876Z" stroke="#5C6168" stroke-width="1.8" stroke-miterlimit="10"/>
</svg>
