<svg width="21" height="20" viewBox="0 0 21 20" fill="none" xmlns="http://www.w3.org/2000/svg">
<path d="M17.2766 4.58177C17.2766 4.39465 17.1938 4.2152 17.0464 4.08288C16.899 3.95057 16.6991 3.87624 16.4907 3.87624H15.7048C15.4963 3.87624 15.2964 3.95057 15.149 4.08288C15.0017 4.2152 14.9189 4.39465 14.9189 4.58177L14.742 6.34561L14.4748 3.48466C14.4748 3.29754 14.392 3.11809 14.2446 2.98577C14.0972 2.85346 13.8973 2.77913 13.6889 2.77913H12.5493C12.3409 2.77913 12.141 2.85346 11.9936 2.98577C11.8462 3.11809 11.7634 3.29754 11.7634 3.48466L11.453 6.37384V2.39108C11.453 2.20396 11.3702 2.02451 11.2228 1.89219C11.0754 1.75988 10.8755 1.68555 10.6671 1.68555H9.29958C9.09114 1.68555 8.89124 1.75988 8.74386 1.89219C8.59647 2.02451 8.51367 2.20396 8.51367 2.39108L8.31719 6.33503V3.69985C8.31719 3.51273 8.23439 3.33328 8.087 3.20096C7.93962 3.06865 7.73972 2.99432 7.53128 2.99432H6.24631C6.14146 2.99196 6.03715 3.00847 5.93952 3.04287C5.84189 3.07728 5.75292 3.12887 5.67784 3.19462C5.60277 3.26037 5.54312 3.33895 5.5024 3.42572C5.46168 3.51249 5.44072 3.6057 5.44075 3.69985L5.09495 8.44458L4.702 9.73924L4.5566 7.5168C4.50552 6.76188 4.25403 6.42322 3.73925 6.43733H2.72543C1.95916 6.47261 1.45618 6.68427 1.3658 7.88016L1.20862 12.6849C1.4716 13.3939 1.933 14.0304 2.5486 14.5334L4.702 16.7241L5.44075 18.1351H15.8777C15.8777 18.1351 16.7815 15.6269 16.9229 14.7591C17.0644 13.8913 17.5163 12.5014 17.6185 11.2561C17.7049 11.1045 17.2766 4.58177 17.2766 4.58177Z" stroke="#5D6269" stroke-width="1.8" stroke-miterlimit="10"/>
<path d="M15.8777 18.3997H5.44079L5.16965 18.248L4.44268 16.8652L2.32857 14.7062C1.70707 14.1973 1.23242 13.5606 0.94537 12.8507V12.7907L0.910004 12.6849L1.06719 7.86606C1.17328 6.5079 1.80201 6.20452 2.71367 6.16572H3.75893C4.74918 6.16572 4.81599 7.16758 4.83956 7.49918V7.67557L5.13035 3.6787C5.13551 3.41919 5.25425 3.17193 5.46088 2.99039C5.66751 2.80885 5.94544 2.70762 6.23456 2.70859H7.49988C7.73772 2.70984 7.96894 2.77903 8.16004 2.90614L8.18362 2.37699C8.18516 2.24697 8.21527 2.11851 8.27224 1.99896C8.32921 1.87942 8.4119 1.77115 8.51559 1.68036C8.61927 1.58958 8.7419 1.51806 8.87644 1.46992C9.01099 1.42178 9.15479 1.39796 9.29961 1.39982H10.6789C10.9711 1.40075 11.2509 1.5056 11.4571 1.6914C11.6634 1.8772 11.7792 2.12881 11.7792 2.3911V2.74387C11.981 2.58142 12.2429 2.49215 12.514 2.4934H13.6418C13.7866 2.4906 13.9306 2.51349 14.0656 2.56077C14.2005 2.60805 14.3237 2.67879 14.4281 2.76892C14.5326 2.85905 14.6161 2.96681 14.674 3.08601C14.732 3.2052 14.7631 3.33349 14.7656 3.46351L14.8128 3.98561C14.9145 3.86251 15.0465 3.76217 15.1985 3.69241C15.3505 3.62265 15.5184 3.58536 15.6891 3.58346H16.475C16.7654 3.58345 17.0441 3.68655 17.2502 3.87026C17.4564 4.05398 17.5732 4.30341 17.5753 4.56415C17.8975 9.67223 17.9368 10.914 17.8975 11.2385C17.807 12.0694 17.6573 12.8942 17.4495 13.7079C17.3513 14.1277 17.2688 14.4875 17.2216 14.7662C17.0762 15.6305 16.196 18.0787 16.1606 18.1845L15.8777 18.3997ZM5.63333 17.8494H15.6537C16.035 16.8182 16.3577 15.7703 16.6204 14.7098C16.6675 14.4029 16.754 14.036 16.8522 13.6091C17.0577 12.8155 17.2048 12.0107 17.2923 11.1997L17.3552 11.0551C17.3289 11.0834 17.3113 11.1175 17.3041 11.1539C17.3513 10.8364 17.1234 6.96298 16.9819 4.59237C16.9819 4.47262 16.9289 4.35776 16.8346 4.27308C16.7403 4.1884 16.6123 4.14083 16.4789 4.14083H15.693C15.5607 4.14083 15.4337 4.18803 15.3401 4.27205C15.2465 4.35607 15.194 4.47002 15.194 4.58885L15.0132 6.37385H14.412L14.1565 3.48821C14.1581 3.42798 14.1464 3.36807 14.1222 3.31189C14.098 3.25571 14.0616 3.20437 14.0153 3.1608C13.969 3.11722 13.9135 3.08228 13.8521 3.05795C13.7907 3.03363 13.7246 3.0204 13.6575 3.01903H12.514C12.3806 3.01903 12.2527 3.0666 12.1583 3.15128C12.064 3.23596 12.011 3.35081 12.011 3.47057L11.7517 6.35621H11.1662V2.3911C11.1662 2.27134 11.1132 2.15649 11.0188 2.07181C10.9245 1.98713 10.7966 1.93956 10.6632 1.93956H9.29961C9.16996 1.94044 9.04577 1.98659 8.95335 2.06824C8.86094 2.14989 8.80755 2.26062 8.80449 2.37699L8.60015 6.37385L8.01858 6.33505V3.69987C8.01858 3.58072 7.96613 3.4664 7.87265 3.38182C7.77917 3.29724 7.65224 3.24926 7.51952 3.24833H6.24635C6.11638 3.25289 5.99344 3.30247 5.90332 3.38666C5.8132 3.47085 5.76291 3.58311 5.76301 3.69987L5.37005 8.51868L4.9771 9.81334L4.38766 9.7569L4.23834 7.53446C4.18333 6.6984 3.89254 6.70545 3.73536 6.72662H2.72546C2.14389 6.75131 1.75879 6.84656 1.66448 7.91545L1.51123 12.6531C1.77091 13.2931 2.19971 13.8669 2.76083 14.3252L4.96924 16.6041L5.63333 17.8494Z" stroke="#5D6269" stroke-width="1.8" stroke-miterlimit="10"/>
</svg>
