<svg xmlns="http://www.w3.org/2000/svg" viewBox="0 0 45.61 49.99"><defs><style>.cls-1{fill:none;stroke:#5d6269;stroke-miterlimit:10;stroke-width:1.8px;}</style></defs><g id="Layer_2" data-name="Layer 2"><g id="Layer_1-2" data-name="Layer 1"><g id="Layer_2-2" data-name="Layer 2"><g id="OBJECTS"><path class="cls-1" d="M42.56,9.92a2,2,0,0,0-2-2h-2a2,2,0,0,0-2,2l-.45,5-.68-8.11a2,2,0,0,0-2-2h-2.9a2,2,0,0,0-2,2L27.74,15V3.71a2,2,0,0,0-2-2H22.26a2,2,0,0,0-2,2l-.5,11.18V7.42a2,2,0,0,0-2-2H14.49a2,2,0,0,0-2.05,2l-.88,13.45-1,3.67-.37-6.3c-.13-2.14-.77-3.1-2.08-3.06H5.53c-1.95.1-3.23.7-3.46,4.09l-.4,13.62a12.37,12.37,0,0,0,3.41,5.24l5.48,6.21,1.88,4H39s2.3-7.11,2.66-9.57,1.51-6.4,1.77-9.93C43.65,28.41,42.56,9.92,42.56,9.92Z"/><path class="cls-1" d="M39,49.09l-26.56,0-.69-.43L9.9,44.74,4.52,38.62A13.23,13.23,0,0,1,1,33.36v-.17l-.09-.3.4-13.66c.27-3.85,1.87-4.71,4.19-4.82H8.16c2.52,0,2.69,2.84,2.75,3.78v.5l.74-11.33a2.8,2.8,0,0,1,2.81-2.75h3.22a2.85,2.85,0,0,1,1.68.56l.06-1.5A2.8,2.8,0,0,1,22.26.9h3.51a2.81,2.81,0,0,1,2.8,2.81v1A2.78,2.78,0,0,1,30.44,4h2.87a2.8,2.8,0,0,1,2.86,2.75v0l.12,1.48a2.82,2.82,0,0,1,2.23-1.14h2a2.8,2.8,0,0,1,2.8,2.78c.82,14.48.92,18,.82,18.92h0a55.49,55.49,0,0,1-1.14,7c-.25,1.19-.46,2.21-.58,3-.37,2.45-2.61,9.39-2.7,9.69ZM12.93,47.53h25.5a90.82,90.82,0,0,0,2.46-8.9c.12-.87.34-1.91.59-3.12a52.56,52.56,0,0,0,1.12-6.83l.16-.41a.6.6,0,0,0-.13.28c.12-.9-.46-11.88-.82-18.6v0a1.28,1.28,0,0,0-1.28-1.28h-2a1.27,1.27,0,0,0-1.27,1.27h0L36.8,15H35.27l-.65-8.18a1.3,1.3,0,0,0-1.27-1.33H30.44a1.28,1.28,0,0,0-1.28,1.28h0l-.66,8.18-1.49,0V3.71a1.28,1.28,0,0,0-1.28-1.28H22.26A1.27,1.27,0,0,0,21,3.67v0L20.48,15,19,14.89V7.42a1.28,1.28,0,0,0-1.27-1.28H14.49a1.28,1.28,0,0,0-1.23,1.28l-1,13.66-1,3.67-1.5-.16-.38-6.3C9.24,15.92,8.5,15.94,8.1,16H5.53c-1.48.07-2.46.34-2.7,3.37L2.44,32.8h0a11.93,11.93,0,0,0,3.18,4.74L11.24,44Z"/></g></g></g></g></svg>