<svg xmlns="http://www.w3.org/2000/svg" viewBox="0 0 67.4 83.37"><defs><style>.cls-1{fill:none;stroke:#5c6168;stroke-miterlimit:10;stroke-width:1.8px;}</style></defs><g id="Layer_2" data-name="Layer 2"><g id="OBJECTS"><path class="cls-1" d="M63.22,16.08l-1.46-.46a3.38,3.38,0,0,0-4.24,2.18L49.45,40.29l5-30.35A3.38,3.38,0,0,0,51.73,6l-1.94-.35a3.38,3.38,0,0,0-3.91,2.73l-6.27,29L37.36,5a3.38,3.38,0,0,0-3.54-3.19l-2,.1a3.38,3.38,0,0,0-3.19,3.54l.55,32.26L23.54,11.48a3.39,3.39,0,0,0-3.9-2.75l-1.94.34A3.38,3.38,0,0,0,15,13L19.87,41V52.46L15.81,50,10.56,39.61a3.87,3.87,0,0,0-4.69-1.83L4,38.46a3.38,3.38,0,0,0-2,4.34l7,19.91a15.41,15.41,0,0,0,4.18,6.36l6.68,7.57,2.32,4.86,31.4,0s2.83-8.69,3.27-11.69c.89-6,1.74-20.93,1.74-20.93l6.76-28.6A3.39,3.39,0,0,0,63.22,16.08Z"/><path class="cls-1" d="M53.63,82.47l-31.41,0-.84-.54-2.26-4.74-6.59-7.48a16.06,16.06,0,0,1-4.28-6.45L8.18,63l-7-19.92A4.3,4.3,0,0,1,3.7,37.59l1.85-.69a4.82,4.82,0,0,1,5.84,2.28l5.14,10.16,2.41,1.46V41.12l-4.9-28a4.32,4.32,0,0,1,3.5-5l1.94-.34a4.31,4.31,0,0,1,5,3.5l3.65,16.92L27.72,5.5A4.32,4.32,0,0,1,31.8,1l2-.1A4.29,4.29,0,0,1,38.29,5l1.8,25.82L45,8.21a4.31,4.31,0,0,1,5-3.45l1.93.35a4.3,4.3,0,0,1,3.48,5L52.05,30.28l4.59-12.79A4.32,4.32,0,0,1,62,14.73l1.46.46a4.32,4.32,0,0,1,2.79,5.42L59.57,49.05c-.07,1.32-.88,15.08-1.75,20.94-.44,3-3.18,11.48-3.3,11.84Zm-30.81-1.9L53,80.6a107.83,107.83,0,0,0,3-10.89c.88-5.94,1.73-20.7,1.74-20.85l0-.16,6.76-28.6A2.46,2.46,0,0,0,62.93,17l-1.45-.46a2.46,2.46,0,0,0-3.07,1.58L50.33,40.6l-1.8-.46,5-30.35a2.45,2.45,0,0,0-2-2.84L49.63,6.6a2.44,2.44,0,0,0-2.83,2L40.53,37.65l-1.85-.14L36.43,5.1a2.48,2.48,0,0,0-2.57-2.33l-2,.1a2.46,2.46,0,0,0-2.31,2.56l.55,32.3-1.84.21L22.63,11.67a2.45,2.45,0,0,0-1-1.6,2.37,2.37,0,0,0-1.82-.41L17.86,10a2.45,2.45,0,0,0-2,2.83L20.81,41V52.46l-1.42.8L15.33,50.8,15,50.42,9.72,40A2.94,2.94,0,0,0,6.2,38.65l-1.84.69a2.44,2.44,0,0,0-1.43,3.14L10,62.6a14.29,14.29,0,0,0,3.88,5.8l6.87,7.83Z"/></g></g></svg>