<svg xmlns="http://www.w3.org/2000/svg" viewBox="0 0 912.47 912.47"><defs><style>.cls-1{fill:#5b6169;stroke:#5c626a;stroke-miterlimit:10;stroke-width:25px;}</style></defs><g id="Layer_2" data-name="Layer 2"><g id="Layer_1-2" data-name="Layer 1"><path class="cls-1" d="M542.42,900H542a17.11,17.11,0,0,1-15.24-10.32L421.09,644H370.9a17.07,17.07,0,0,1,0-34.14h35.53L269.9,292.3a17.07,17.07,0,0,1,22.41-22.41L609.83,406.43V370.89a17.07,17.07,0,0,1,34.14-.05v50.21L889.61,525.86a17.08,17.08,0,0,1,.92,31L741,631.58,895,785.5a17.05,17.05,0,0,1,0,24.11l0,0L809.63,895a17.05,17.05,0,0,1-24.11,0l0,0L631.65,741.11,557.71,890.46A17.06,17.06,0,0,1,542.42,900Zm84.48-204.8a17.11,17.11,0,0,1,12.07,5l158.6,158.6,61.2-61.2L700.17,639a17,17,0,0,1,4.44-27.32L842.28,542.8l-222-94.73-.1,0-302-129.87L448,620.15l0,.07,95.45,222,68.1-137.57A17.07,17.07,0,0,1,626.9,695.15ZM285.57,644H200.23a17.07,17.07,0,0,1,0-34.14h85.34a17.07,17.07,0,0,1,.05,34.14ZM114.9,644H29.57A17.07,17.07,0,0,1,12.5,626.89V541.56a17.07,17.07,0,1,1,34.13,0v68.28H114.9a17.07,17.07,0,1,1,0,34.14ZM29.57,473.29A17.06,17.06,0,0,1,12.5,456.23h0V370.89a17.07,17.07,0,0,1,34.13,0v85.34a17.06,17.06,0,0,1-17.06,17.06ZM626.9,302.63a17.07,17.07,0,0,1-17.07-17.07V200.23a17.07,17.07,0,0,1,34.14,0v85.38A17.07,17.07,0,0,1,626.9,302.63Zm-597.33,0A17.07,17.07,0,0,1,12.5,285.56h0V200.23a17.07,17.07,0,0,1,34.13,0v85.33a17.06,17.06,0,0,1-17.06,17.07ZM626.9,132a17.06,17.06,0,0,1-17.07-17.06V46.63H541.57a17.07,17.07,0,1,1,0-34.13H626.9A17.07,17.07,0,0,1,644,29.57V114.9A17.06,17.06,0,0,1,626.9,132ZM29.57,132A17.06,17.06,0,0,1,12.5,114.9V29.57A17.07,17.07,0,0,1,29.57,12.5H114.9a17.07,17.07,0,0,1,0,34.13H46.63V114.9A17.06,17.06,0,0,1,29.57,132ZM456.23,46.63H370.9a17.07,17.07,0,0,1,0-34.13h85.33a17.07,17.07,0,1,1,0,34.13Zm-170.66,0H200.23a17.07,17.07,0,0,1,0-34.13h85.34a17.07,17.07,0,0,1,0,34.13Z"/></g></g></svg>