<svg xmlns="http://www.w3.org/2000/svg" viewBox="0 0 887.47 887.49"><g id="Layer_2" data-name="Layer 2"><g id="Layer_1-2" data-name="Layer 1"><path d="M529.92,887.47h-.44a17.13,17.13,0,0,1-15.24-10.33L408.59,631.47H358.4a17.07,17.07,0,0,1,0-34.14h35.53L257.4,279.81a17.07,17.07,0,0,1,22.41-22.41L597.33,393.93V358.4a17.07,17.07,0,0,1,34.14,0v50.21L877.11,513.37a17.08,17.08,0,0,1,.92,31L728.54,619.09,882.47,773a17.05,17.05,0,0,1,0,24.11l0,0-85.34,85.33a17,17,0,0,1-24.11,0l0,0L619.14,728.63,545.21,878a17.06,17.06,0,0,1-15.29,9.49Zm84.48-204.8a17.07,17.07,0,0,1,12.07,5l158.6,158.6,61.2-61.2-158.6-158.6a17,17,0,0,1,4.43-27.33l137.68-68.83-222-94.73-.1,0-302-129.88,129.86,302,0,.07,95.45,222,68.1-137.58A17,17,0,0,1,614.4,682.67Zm-341.33-51.2H187.73a17.07,17.07,0,0,1,0-34.14h85.34a17.07,17.07,0,0,1,.05,34.14Zm-170.67,0H17.07A17.07,17.07,0,0,1,0,614.4V529.07a17.07,17.07,0,1,1,34.13,0v68.28H102.4a17.07,17.07,0,1,1,0,34.14ZM17.07,460.8A17.07,17.07,0,0,1,0,443.73H0V358.4a17.07,17.07,0,0,1,34.13,0v85.33A17.06,17.06,0,0,1,17.07,460.8ZM614.4,290.13a17.06,17.06,0,0,1-17.07-17.06V187.73a17.07,17.07,0,0,1,34.14,0v85.39A17.06,17.06,0,0,1,614.4,290.13Zm-597.33,0A17.06,17.06,0,0,1,0,273.07H0V187.73a17.07,17.07,0,0,1,34.13,0v85.34a17.06,17.06,0,0,1-17.06,17.06ZM614.4,119.47a17.07,17.07,0,0,1-17.07-17.07V34.13H529.07a17.07,17.07,0,1,1,0-34.13H614.4a17.07,17.07,0,0,1,17.07,17.07V102.4a17.07,17.07,0,0,1-17.07,17.07Zm-597.33,0A17.07,17.07,0,0,1,0,102.4V17.07A17.07,17.07,0,0,1,17.07,0H102.4a17.07,17.07,0,0,1,0,34.13H34.13V102.4A17.06,17.06,0,0,1,17.07,119.47ZM443.73,34.13H358.4A17.07,17.07,0,0,1,358.4,0h85.33a17.07,17.07,0,1,1,0,34.13Zm-170.66,0H187.73a17.07,17.07,0,0,1,0-34.13h85.34a17.07,17.07,0,0,1,0,34.13Z"/></g></g></svg>